<mxfile host="app.diagrams.net" modified="2023-04-04T02:36:58.579Z" agent="Mozilla/5.0 (Macintosh; Intel Mac OS X 10_15_7) AppleWebKit/537.36 (KHTML, like Gecko) Chrome/111.0.0.0 Safari/537.36" version="21.1.1" etag="Ywmj5opkPYXxi4UW9CVN" type="github">
  <diagram name="第 1 页" id="GvC3XuOH1VoAFwLOGZQf">
    <mxGraphModel>
      <root>
        <mxCell id="0" />
        <mxCell id="1" parent="0" />
      </root>
    </mxGraphModel>
  </diagram>
</mxfile>
